<?xml version="1.0" encoding="utf-8"?>
<!-- Generator: Adobe Illustrator 23.0.6, SVG Export Plug-In . SVG Version: 6.00 Build 0)  -->
<svg version="1.1" id="Layer_1" xmlns="http://www.w3.org/2000/svg" xmlns:xlink="http://www.w3.org/1999/xlink" x="0px" y="0px"
	 viewBox="0 0 428 187" style="enable-background:new 0 0 428 187;" xml:space="preserve">
<style type="text/css">
	.st0{fill:#F5AA0C;}
	.st1{fill:#FFFFFF;}
</style>
<rect x="9.4" y="59.2" class="st0" width="407.4" height="65.7"/>
<polygon class="st0" points="101.1,10.1 101.1,33.1 242.9,33.1 103,174 300.9,174 300.9,152.4 158.6,151.4 300.9,10.1 "/>
<g>
	<path class="st1" d="M63.4,111.9c-2.4,1-7.9,2.8-15.4,2.8c-7,0-13.2-1.8-18.3-6.5c-4.1-3.8-6.7-10-6.7-16.9
		C23,80.6,31.2,68,49.6,68c5.7,0,10.3,1.4,12.2,2.3L60.7,73c-2.8-1.3-6.3-2.2-11.3-2.2c-15,0-23,9.3-23,20.7
		c0,11.9,8.1,20.5,22.1,20.5c5.6,0,9.3-0.8,11.4-1.9V94.4H48.2v-2.7h15.2C63.4,91.7,63.4,111.9,63.4,111.9z"/>
	<path class="st1" d="M97.4,91.4H77v20h22.7v2.8h-26V68.4h24.9v2.8H77v17.5h20.4V91.4z"/>
	<path class="st1" d="M108.4,114.2V68.4h3.1l20.7,28.2c4.2,5.7,6.9,9.3,9.3,13.4l0.1-0.1c-0.5-5.3-0.5-10.7-0.5-17.8V68.4h3.3v45.8
		h-3.1l-20.1-27.3c-3.9-5.3-7.4-10.1-9.9-14.2l-0.2,0.1c0.3,5.2,0.4,10.1,0.4,16.9v24.5H108.4z"/>
	<path class="st1" d="M180.1,91.4h-20.4v20h22.7v2.8h-26V68.4h24.9v2.8h-21.6v17.5h20.4L180.1,91.4L180.1,91.4z"/>
	<path class="st1" d="M191.2,69c3.1-0.6,7.6-1,11.2-1c6.5,0,10.6,1.4,13.4,4.1c2,1.8,3.3,4.9,3.3,8c0,6.1-3.9,10.2-9.5,11.9v0.1
		c3.7,1.3,6.2,4.8,7.3,9.3c1.7,7.2,2.7,10.8,3.7,12.8H217c-0.7-1.3-1.8-5.3-3.1-11c-1.5-6.6-4.5-9.7-10.7-10h-8.7v21h-3.3V69z
		 M194.5,90.5h8.8c7.5,0,12.3-3.9,12.3-9.9c0-7.3-6.1-9.9-13.4-9.9c-3.7,0-6.5,0.4-7.8,0.7L194.5,90.5L194.5,90.5z"/>
	<path class="st1" d="M234.3,98.1l-6.3,16.1h-3.5L243,68.4h3.3l18.4,45.8h-3.5l-6.5-16.1H234.3z M253.6,95.3l-6.5-16.1
		c-1.2-3.1-1.8-5-2.5-7.3h-0.1c-0.7,2.3-1.4,4.4-2.5,7.1l-6.5,16.3H253.6z"/>
	<path class="st1" d="M276.6,71.2h-17.1v-2.8H297v2.8h-17v43h-3.3v-43H276.6z"/>
	<path class="st1" d="M304.9,68.4v45.8h-3.3V68.4H304.9z"/>
	<path class="st1" d="M359.5,90.7c0,15.8-11.3,24.3-23.3,24.3c-13.1,0-22.8-9.7-22.8-23.1c0-14.4,10.2-24.3,23.3-24.3
		C350.2,67.6,359.5,77.5,359.5,90.7z M317,91.8c0,10.8,7.4,20.5,19.4,20.5c12.1,0,19.7-9.2,19.7-21.4c0-9.9-6.5-20.7-19.4-20.7
		C323.6,70.3,317,80.5,317,91.8z"/>
	<path class="st1" d="M368.1,114.2V68.4h3.1l20.7,28.2c4.2,5.7,6.9,9.3,9.3,13.4l0.1-0.1c-0.5-5.3-0.5-10.7-0.5-17.8V68.4h3.3v45.8
		H401l-20-27.3c-3.9-5.3-7.4-10.1-9.9-14.2l-0.2,0.1c0.3,5.2,0.4,10.1,0.4,16.9v24.5L368.1,114.2L368.1,114.2z"/>
</g>
<polygon class="st1" points="151.8,124.8 185.3,124.8 251.3,58.8 217.1,58.8 "/>
<g>
	<g>
		<path class="st0" d="M212.2,98.3c-1.8-3.3-4.6-4.9-9.1-5.2h-8.7v21h-3.3V85.5l3.3-3.4v8.2h8.8c7.5,0,12.3-3.9,12.3-9.9
			c0-6.2-4.3-9-10.1-9.7l2.1-2.5c3.6,0.6,6.1,1.8,8.1,3.7c2,1.8,3.3,4.9,3.3,8c0,6.1-3.9,10.2-9.5,11.9v0.1c2.1,0.7,3.8,2.1,5,4"/>
	</g>
</g>
</svg>
